<svg id="ART" xmlns="http://www.w3.org/2000/svg" xmlns:xlink="http://www.w3.org/1999/xlink" viewBox="0 0 702.9 157.09"><defs><style>.cls-1{fill:#fff;}.cls-2{fill:url(#linear-gradient);}.cls-3{fill:url(#linear-gradient-2);}</style><linearGradient id="linear-gradient" x1="88.88" y1="77.81" x2="57.65" y2="18.77" gradientUnits="userSpaceOnUse"><stop offset="0" stop-color="#d9dce1"/><stop offset="1" stop-color="#fff"/></linearGradient><linearGradient id="linear-gradient-2" x1="108.24" y1="78.55" x2="164.21" y2="78.55" gradientUnits="userSpaceOnUse"><stop offset="0" stop-color="#00c9ff"/><stop offset="0.1" stop-color="#09cef8"/><stop offset="0.7" stop-color="#39ead4"/><stop offset="1" stop-color="#4bf5c6"/></linearGradient></defs><title>Blocknet_BlockDX_Logo_working</title><path class="cls-1" d="M90.7,19.64h-68l34,58.91-34,58.91h68l34-58.91ZM79.36,117.82H56.68L79.36,78.55,56.69,39.27H79.36L102,78.54Z"/><path class="cls-2" d="M124.71,78.55l-34-58.91h-68l34,58.91H79.36L56.69,39.27H79.36L102,78.55Z"/><path class="cls-3" d="M121.87,44.18,136,19.64h22.67L133.21,63.82Zm0,68.73L136,137.45h22.66l-25.5-44.18Z"/><path class="cls-1" d="M234.63,39.27c14.56,0,23.72,8.27,23.72,21.51,0,8.49-5.3,14.56-10.59,16.66,6.07,2.43,11.8,8.27,11.8,18.2,0,14.45-9.82,22.17-23.72,22.17H204.07V39.27ZM216,50V72.48h17.65c7.61,0,12.8-4,12.8-11.25S241.25,50,233.63,50Zm0,33.21v23.94h18.75c8.27,0,12.91-5.07,12.91-12S243,83.18,234.74,83.18Z"/><path class="cls-1" d="M283.61,107.12h37.84v10.7H271.7V39.27h11.92Z"/><path class="cls-1" d="M373.75,46.55c7.72,7.72,7.94,15.56,7.94,32s-.22,24.27-7.94,32c-5.07,5.07-11.69,7.94-20.3,7.94s-15.22-2.87-20.3-7.94c-7.72-7.72-7.94-15.56-7.94-32s.22-24.27,7.94-32c5.07-5.07,11.69-7.94,20.3-7.94S368.67,41.48,373.75,46.55Zm-32,7.5c-3.86,4.19-4.63,8.94-4.63,24.49s.77,20.19,4.63,24.38a16.51,16.51,0,0,0,23.39,0c4-4.08,4.63-8.83,4.63-24.38s-.66-20.41-4.63-24.49a16.79,16.79,0,0,0-23.39,0Z"/><path class="cls-1" d="M449.1,62.77H437c-1.76-8.05-7.17-13.46-15.89-13.46a15.29,15.29,0,0,0-11.58,4.74c-4,4.19-4.74,8.94-4.74,24.49s.77,20.3,4.74,24.49a15.29,15.29,0,0,0,11.58,4.74c8.71,0,14.12-5.41,15.89-13.46H449.1c-2.76,15.56-13.68,24.16-28,24.16-8.61,0-15.22-2.87-20.3-7.94-7.61-7.72-7.94-15.56-7.94-32s.33-24.27,7.94-32c5.07-5.07,11.69-7.94,20.3-7.94C435.53,38.61,446.34,47.21,449.1,62.77Z"/><path class="cls-1" d="M492.57,70.05l28.13,47.77h-14L484.63,79.1,471.39,95v22.84H459.47V39.27h11.92V78.77l32.1-39.49h14.56Z"/><path class="cls-1" d="M577.41,39.27c9.82,0,16.77,3.09,22.29,9.93,5.74,7.06,6,16.77,6,29.35s-.22,22.29-6,29.35c-5.52,6.84-12.47,9.93-22.29,9.93H549.83V39.27ZM561.75,50v57.15h14.34c5.63,0,10.15-1.43,13.46-5.3,3.86-4.3,4.19-11.58,4.19-23.28s-.33-19-4.19-23.28c-3.31-3.86-7.83-5.3-13.46-5.3Z"/><path class="cls-1" d="M644.49,77.55l24.38,40.27H655.08L638,87.7l-17,30.12H607.31l24.27-40.27L608.86,39.27h13.68L638,67.4l15.56-28.13h13.68Z"/></svg>